#!OML:ASF F:\VICON\USERDATA\INSTALL\rory3\rory3.ASF
:FULLY-SPECIFIED
:DEGREES
62
root 0.46358598420691555 17.620912882735283 37.73042459306761 -2.1103587004054196 -4.493602677306102 -6.841767450996333
lfemur -24.781679560419406 -3.8393458116838715 -11.478116860127791
ltibia 25.03790660171671
lfoot -5.744033008698596 -3.406738553839558
ltoes -8.113533355613372
rfemur 5.071962033134833 3.7164902307049017 32.893815539873174
rtibia 37.60529683312477
rfoot -5.938826210156504 -6.080481207017133
rtoes 0.08224517985090962
lowerback 10.116497835884083 2.1406051715615835 5.9696355406935995
upperback -0.292232236616097 3.316774882522213 1.9679124070966116
thorax -5.884329028006988 1.334319754322717 -1.4193047075095715
lowerneck -16.3679780955927 -3.5572190119522413 -2.0270174059412307
upperneck 20.9452644455843 -4.738053267546205 2.108844634524785
head 9.42844479677129 -2.162318870330435 0.32989298339418793
lclavicle 3.007644532105537e-16 5.650158596746725e-17
lhumerus -36.5604712584676 8.672817402583965 80.57062478958983
lradius 22.260266504021942
lwrist 7.475007583336123
lhand -29.187280827635092 19.776215753732433
lfingers 7.125020000000001
lthumb -2.5594909318758683 49.922078283994594
rclavicle 2.9939854471644194e-16 5.552075401268616e-17
rhumerus -21.016246073028093 -12.65987626176178 -80.67989619271444
rradius 29.4768673838389
rwrist 2.4477674233161224
rhand -18.185538535177585 23.0626326932653
rfingers 7.125020000000001
rthumb 7.924697980653734 -6.98975572534602
63
root 0.51723038223777 17.645630298716966 38.93333455341586 -2.9093278172718984 -4.172518248871709 -5.901815387828757
lfemur -24.581130918541803 -2.966673937079307 -13.62984686436215
ltibia 28.105097153077537
lfoot -5.01542107385985 -2.466748695669822
ltoes -7.832094288080845
rfemur 3.9549439374176867 3.0129869509106264 31.5060864221626
rtibia 40.34879354120869
rfoot -5.21619635335692 -5.879368902469507
rtoes 1.0743697535111234
lowerback 10.149967837869537 2.1288530848632115 5.354284937393771
upperback -0.2691667522194572 3.251230645018916 1.8215476954567587
thorax -5.876881220531076 1.36917195735773 -1.1600293183963
lowerneck -16.430804395009705 -3.533860691077809 -2.1146354852260405
upperneck 20.95876511635165 -4.783243813442986 2.1279339062258993
head 9.411888829525987 -2.173091336974659 0.33342323804076496
lclavicle 3.007644532105669e-16 5.650158596747676e-17
lhumerus -36.8247371722666 9.267737864599134 80.09959152397575
lradius 22.3010706294873
lwrist 7.708621525822245
lhand -29.05326143803958 20.236903875405428
lfingers 7.125020000000001
lthumb -2.592842154750085 49.84186224423171
rclavicle 2.993985447163632e-16 5.552075401262962e-17
rhumerus -21.52825050407052 -13.429758279370585 -80.45786247637744
rradius 29.45379182711224
rwrist 2.5696889345706104
rhand -18.188252511009008 23.027556043881233
rfingers 7.125020000000001
rthumb 7.932575200512033 -7.03172880141184
64
root 0.5608808359443845 17.682885959289635 39.423094758655 -3.6524230653586125 -4.036213995270163 -4.878226759671489
lfemur -22.934872733282283 -2.6271313673780217 -15.5691086578786
ltibia 31.732112966959303
lfoot -5.373689645225282 -2.4902983691897873
ltoes -8.312556374457122
rfemur 1.7866425000320838 1.88962362446292 29.9433709728822
rtibia 43.24056012701514
rfoot -4.70985285480626 -5.8057582434274835
rtoes 2.245912090070672
lowerback 10.253596388913557 2.0553047331284255 4.433181278896135
upperback -0.24011738219976772 3.074330201434731 1.630458898743138
thorax -5.908310305960074 1.3273776635060412 -1.027729626056998
lowerneck -16.45523407435416 -3.4879213634159134 -2.1645939550845754
upperneck 20.98534290086789 -4.783908060075405 2.169436437480101
head 9.414846494503307 -2.175017886793324 0.3600011480886027
lclavicle 3.007644532112082e-16 5.650158596793723e-17
lhumerus -36.95313854574253 9.62686485085925 79.7663216698191
lradius 22.428644181259337
lwrist 8.041340706534381
lhand -29.131745087598276 19.90534658809357
lfingers 7.125020000000001
lthumb -2.640641510970951 49.67302549275754
rclavicle 2.9939854471654044e-16 5.552075401275688e-17
rhumerus -22.694700411512777 -14.542856563929085 -80.14233394633949
rradius 29.43703175314506
rwrist 2.7235457373124032
rhand -18.189493592756776 23.005130190044436
rfingers 7.125020000000001
rthumb 7.930974244243598 -7.099362678627064
65
root 0.6024459762754026 17.73292777385441 40.25914192603588 -4.192658454914701 -3.915659441574336 -3.7517035630382054
lfemur -20.911705328138538 -1.9486122300126398 -17.518659680108534
ltibia 34.861165705015736
lfoot -5.479720734093084 -1.9923513246341806
ltoes -8.833484838234911
rfemur -0.7860516138858795 0.8174175129076242 28.53866848942288
rtibia 45.98107063053686
rfoot -3.90586151660852 -5.8077513174038815
rtoes 3.6155449207760166
lowerback 10.452078714257553 2.006981717300534 3.5544442243384147
upperback -0.17747970063983926 2.873517783796218 1.4425223593170244
thorax -5.920393379254888 1.3184434663042341 -0.6916596535830257
lowerneck -16.509180580654075 -3.45392948350325 -2.2221057663732324
upperneck 21.03317074791994 -4.734391817515267 2.229830175172237
head 9.408798277338573 -2.1831167006036707 0.3742492509051648
lclavicle 3.007644532111246e-16 5.65015859678772e-17
lhumerus -36.9351406595205 9.718681872968991 79.59630553534308
lradius 22.735778604422418
lwrist 8.147705561562717
lhand -29.05300162700681 20.20150919407574
lfingers 7.125020000000001
lthumb -2.6265038266934684 49.6958236759287
rclavicle 2.993985447165284e-16 5.552075401274824e-17
rhumerus -24.10212362150303 -15.738950751219178 -79.83929514985734
rradius 29.47315631233898
rwrist 2.7746485782585943
rhand -18.172473474599077 23.001036141481205
rfingers 7.125020000000001
rthumb 7.923011055051754 -7.139488911974859
66
root 0.6307668946344018 17.78373088524764 40.828246093828895 -4.579747561830912 -3.6987764171583493 -2.7996325876359047
lfemur -18.398511390554827 -1.498964983653067 -19.67114707441642
ltibia 36.88000129133258
lfoot -5.943054821791325 -1.8100539381304324
ltoes -7.804946277797775
rfemur -3.810689031785037 -0.16390296944741367 27.254528513878785
rtibia 48.47345030287637
rfoot -2.683373599210933 -5.938118258322056
rtoes 4.399378268003035
lowerback 10.660394907613883 1.9097378246614978 2.6530062462681947
upperback -0.08281626511610544 2.7260130195647436 1.306058831343938
thorax -5.955896544917513 1.2436176480084504 -0.48021058732459476
lowerneck -16.566880750776484 -3.4153464093235693 -2.264837422737057
upperneck 21.043056716494494 -4.675951009796203 2.236978094434971
head 9.416597970775639 -2.175609163050688 0.4011091800354586
lclavicle 3.0076445321130633e-16 5.650158596800771e-17
lhumerus -36.6748963269318 9.534716867045352 79.63730249378656
lradius 23.187880083378197
lwrist 7.948913645121192
lhand -29.17558776040742 19.768511040237613
lfingers 7.125020000000001
lthumb -2.6235086442350632 49.649868629098734
rclavicle 2.9939854471646866e-16 5.552075401270536e-17
rhumerus -25.233684035385945 -16.750560219041617 -79.6123317523563
rradius 29.562962784526412
rwrist 2.7755448764326234
rhand -18.134853860215745 23.055489796160817
rfingers 7.125020000000001
rthumb 7.927274203317609 -7.118810461781138
67
root 0.6559193197367779 17.830861308245414 41.95540370986592 -4.8115801180356765 -3.1746840992261984 -2.029019144095671
lfemur -15.191411727947035 -1.5799748584180686 -21.28070934600074
ltibia 38.00334742663614
lfoot -5.96836101778573 -1.0423172387673982
ltoes -7.317434049382255
rfemur -7.158651396382326 -1.0810343350601883 26.141209501556695
rtibia 50.265601647386816
rfoot -1.8172716656982795 -6.358272328322645
rtoes 4.686069628175863
lowerback 10.889431005903267 1.764260369969918 1.8108016219397436
upperback -0.0057012846428976666 2.47285157970377 1.1957304898503627
thorax -5.9747035855174015 1.1702095588218886 -0.0972194619662814
lowerneck -16.624790232096387 -3.3767274825884535 -2.2946407011742633
upperneck 21.03058392379928 -4.615676946535955 2.251015459502651
head 9.422954066894773 -2.1536311556526724 0.43064779619586935
lclavicle 3.007644532115541e-16 5.650158596818562e-17
lhumerus -36.20871375278019 8.944614015504555 79.8581026344446
lradius 23.677123497537487
lwrist 7.610456457529311
lhand -29.102410489093707 20.054151825610163
lfingers 7.125020000000001
lthumb -2.546286911279323 49.83332064534476
rclavicle 2.993985447163553e-16 5.552075401262395e-17
rhumerus -26.00049659327015 -17.702345806919297 -79.46304590884674
rradius 29.697990408169602
rwrist 2.7584638078919834
rhand -18.075292674171774 23.16945863047123
rfingers 7.125020000000001
rthumb 7.949882903814497 -7.05681749772294
68
root 0.6642352497809325 17.85540956814596 42.690945288793515 -4.958078964623411 -2.4961516931469783 -1.5749037996214348
lfemur -12.114072637943735 -1.796109736318339 -22.263125250089477
ltibia 38.230110418264076
lfoot -6.277551481335194 -0.8185022788229239
ltoes -7.322381930777932
rfemur -11.09376049345166 -1.9702952099826252 25.08908885784383
rtibia 50.857195367730874
rfoot -2.0365284552318395 -7.035344374444773
rtoes 4.31913720438291
lowerback 11.112909265645666 1.5596719505209762 1.126799835114622
upperback 0.08692532212210091 2.1945598414738523 1.1568305003070773
thorax -5.999700886837744 1.065766855515758 0.2969873321309533
lowerneck -16.645140108457095 -3.330118235512679 -2.296538611360533
upperneck 21.011551764348848 -4.550509929775208 2.2965013897258637
head 9.42322514866956 -2.125759051533314 0.4510067846873538
lclavicle 3.007644532114281e-16 5.650158596809512e-17
lhumerus -35.56493718383649 7.958564985710433 80.1727485152453
lradius 24.163776085377073
lwrist 7.451905718503335
lhand -29.22395184698133 19.631695286966547
lfingers 7.125020000000001
lthumb -2.503173111471399 49.897441034557446
rclavicle 2.9939854471635413e-16 5.552075401262309e-17
rhumerus -26.639314020717038 -18.72924236705777 -79.22311164186901
rradius 29.776212848029626
rwrist 2.756809767218126
rhand -18.04770327043835 23.220259992346406
rfingers 7.125020000000001
rthumb 7.977775910099011 -6.974659578452126
